<svg width="32" height="32" viewBox="0 0 32 32" fill="none" xmlns="http://www.w3.org/2000/svg">
<path d="M31.524 6.58268C30.4107 7.07601 29.2147 7.40934 27.9574 7.56001C29.24 6.79201 30.224 5.57334 30.688 4.12268C29.488 4.83468 28.1587 5.35201 26.744 5.62934C25.6107 4.42401 23.9974 3.66934 22.2107 3.66934C18.7814 3.66934 16 6.45068 16 9.88268C16 10.368 16.056 10.84 16.16 11.296C10.996 11.036 6.42136 8.56268 3.35736 4.80534C2.82403 5.72534 2.51736 6.79201 2.51736 7.92801C2.51736 10.0827 3.61469 11.9853 5.28003 13.0987C4.26136 13.0653 3.30403 12.7867 2.46669 12.3213V12.4013C2.46669 15.4107 4.60669 17.9213 7.44936 18.492C6.92669 18.6333 6.37869 18.708 5.81336 18.708C5.41336 18.708 5.02269 18.6707 4.64403 18.5987C5.43469 21.0653 7.72803 22.8627 10.4467 22.9107C8.32003 24.5773 5.64136 25.5707 2.73203 25.5707C2.23069 25.5707 1.73603 25.5413 1.24936 25.484C3.99869 27.248 7.26269 28.2747 10.7694 28.2747C22.196 28.2747 28.4427 18.8107 28.4427 10.6027C28.4427 10.336 28.436 10.0667 28.424 9.80001C29.6374 8.92267 30.6907 7.83068 31.5214 6.58668L31.524 6.58268Z" fill="#1DA1F2"/>
</svg>
